HIERARCHY
ROOT Hips
{
	OFFSET 0.000000 103.266502 0.000000
	CHANNELS 6 Xposition Yposition Zposition Xrotation Yrotation Zrotation 
	JOINT Spine
	{
		OFFSET -0.002400 12.777504 0.315300
		CHANNELS 3 Xrotation Yrotation Zrotation
		JOINT Spine1
		{
			OFFSET -0.002067 5.816869 0.032633
			CHANNELS 3 Xrotation Yrotation Zrotation
			JOINT Spine1_split
			{
				OFFSET -0.002067 5.816869 0.032633
				CHANNELS 3 Xrotation Yrotation Zrotation
				JOINT Spine2
				{
					OFFSET -0.002067 5.816869 0.032633
					CHANNELS 3 Xrotation Yrotation Zrotation
					JOINT Neck
					{
						OFFSET -0.003700 21.199493 -0.826900
						CHANNELS 3 Xrotation Yrotation Zrotation
						JOINT Head
						{
							OFFSET 0.000000 20.442200 4.834800
							CHANNELS 3 Xrotation Yrotation Zrotation
							JOINT HeadTop_End
							{
								OFFSET 0.000000 34.668396 4.968400
								CHANNELS 3 Xrotation Yrotation Zrotation
								End Site
								{
									OFFSET 0.000000 0.000000 0.000000
								}
							}
						}
					}
					JOINT LeftShoulder
					{
						OFFSET 3.288150 8.794197 -1.372250
						CHANNELS 3 Xrotation Yrotation Zrotation
						JOINT LeftShoulder_split
						{
							OFFSET 3.288150 8.794197 -1.372250
							CHANNELS 3 Xrotation Yrotation Zrotation
							JOINT LeftArm
							{
								OFFSET 11.953299 -2.279007 -0.146200
								CHANNELS 3 Xrotation Yrotation Zrotation
								JOINT LeftForeArm
								{
									OFFSET 18.448900 0.000000 0.000000
									CHANNELS 3 Xrotation Yrotation Zrotation
									JOINT LeftHand
									{
										OFFSET 29.527798 0.000000 0.000000
										CHANNELS 3 Xrotation Yrotation Zrotation
										JOINT LeftHandThumb1
										{
											OFFSET 10.739754 -2.369614 9.225399
											CHANNELS 3 Xrotation Yrotation Zrotation
											JOINT LeftHandThumb2
											{
												OFFSET 4.926170 -2.844131 2.844125
												CHANNELS 3 Xrotation Yrotation Zrotation
												JOINT LeftHandThumb3
												{
													OFFSET 4.614891 -2.664413 2.664409
													CHANNELS 3 Xrotation Yrotation Zrotation
													JOINT LeftHandThumb4
													{
														OFFSET 4.432465 -2.559082 2.559083
														CHANNELS 3 Xrotation Yrotation Zrotation
														End Site
														{
															OFFSET 0.000000 0.000000 0.000000
														}
													}
												}
											}
										}
										JOINT LeftHandIndex1
										{
											OFFSET 26.467674 0.187653 6.405298
											CHANNELS 3 Xrotation Yrotation Zrotation
											JOINT LeftHandIndex2
											{
												OFFSET 8.792900 0.000000 0.000000
												CHANNELS 3 Xrotation Yrotation Zrotation
												JOINT LeftHandIndex3
												{
													OFFSET 10.075203 0.000000 0.000000
													CHANNELS 3 Xrotation Yrotation Zrotation
													End Site
													{
														OFFSET 0.000000 0.000000 0.000000
													}
												}
											}
										}
										JOINT LeftHandMiddle1
										{
											OFFSET 25.764404 0.000000 0.000000
											CHANNELS 3 Xrotation Yrotation Zrotation
											JOINT LeftHandMiddle2
											{
												OFFSET 9.393974 0.000000 0.000000
												CHANNELS 3 Xrotation Yrotation Zrotation
												JOINT LeftHandMiddle3
												{
													OFFSET 10.771950 0.000000 0.000000
													CHANNELS 3 Xrotation Yrotation Zrotation
													End Site
													{
														OFFSET 0.000000 0.000000 0.000000
													}
												}
											}
										}
										JOINT LeftHandRing1
										{
											OFFSET 24.660927 0.144547 -6.225808
											CHANNELS 3 Xrotation Yrotation Zrotation
											JOINT LeftHandRing2
											{
												OFFSET 9.393799 0.000000 0.000000
												CHANNELS 3 Xrotation Yrotation Zrotation
												JOINT LeftHandRing3
												{
													OFFSET 9.928497 0.000000 0.000000
													CHANNELS 3 Xrotation Yrotation Zrotation
													End Site
													{
														OFFSET 0.000000 0.000000 0.000000
													}
												}
											}
										}
										JOINT LeftHandPinky1
										{
											OFFSET 23.655350 0.125290 -12.815412
											CHANNELS 3 Xrotation Yrotation Zrotation
											JOINT LeftHandPinky2
											{
												OFFSET 8.425102 0.000000 0.000000
												CHANNELS 3 Xrotation Yrotation Zrotation
												JOINT LeftHandPinky3
												{
													OFFSET 8.147003 0.000000 0.000000
													CHANNELS 3 Xrotation Yrotation Zrotation
													End Site
													{
														OFFSET 0.000000 0.000000 0.000000
													}
												}
											}
										}
									}
								}
							}
						}
					}
					JOINT RightShoulder
					{
						OFFSET -3.249400 8.794197 -1.372250
						CHANNELS 3 Xrotation Yrotation Zrotation
						JOINT RightShoulder_split
						{
							OFFSET -3.249400 8.794197 -1.372250
							CHANNELS 3 Xrotation Yrotation Zrotation
							JOINT RightArm
							{
								OFFSET -11.953299 -2.279007 -0.146200
								CHANNELS 3 Xrotation Yrotation Zrotation
								JOINT RightForeArm
								{
									OFFSET -18.448900 0.000000 0.000000
									CHANNELS 3 Xrotation Yrotation Zrotation
									JOINT RightHand
									{
										OFFSET -29.527802 0.000000 0.000000
										CHANNELS 3 Xrotation Yrotation Zrotation
										JOINT RightHandThumb1
										{
											OFFSET -10.739754 -2.369614 9.225399
											CHANNELS 3 Xrotation Yrotation Zrotation
											JOINT RightHandThumb2
											{
												OFFSET -4.926170 -2.844131 2.844125
												CHANNELS 3 Xrotation Yrotation Zrotation
												JOINT RightHandThumb3
												{
													OFFSET -4.614891 -2.664413 2.664409
													CHANNELS 3 Xrotation Yrotation Zrotation
													JOINT RightHandThumb4
													{
														OFFSET -4.432465 -2.559082 2.559083
														CHANNELS 3 Xrotation Yrotation Zrotation
														End Site
														{
															OFFSET 0.000000 0.000000 0.000000
														}
													}
												}
											}
										}
										JOINT RightHandIndex1
										{
											OFFSET -26.467674 0.187653 6.405298
											CHANNELS 3 Xrotation Yrotation Zrotation
											JOINT RightHandIndex2
											{
												OFFSET -8.792900 0.000000 0.000000
												CHANNELS 3 Xrotation Yrotation Zrotation
												JOINT RightHandIndex3
												{
													OFFSET -10.075203 0.000000 0.000000
													CHANNELS 3 Xrotation Yrotation Zrotation
													End Site
													{
														OFFSET 0.000000 0.000000 0.000000
													}
												}
											}
										}
										JOINT RightHandMiddle1
										{
											OFFSET -25.764404 0.000000 0.000000
											CHANNELS 3 Xrotation Yrotation Zrotation
											JOINT RightHandMiddle2
											{
												OFFSET -9.393974 0.000000 0.000000
												CHANNELS 3 Xrotation Yrotation Zrotation
												JOINT RightHandMiddle3
												{
													OFFSET -10.771950 0.000000 0.000000
													CHANNELS 3 Xrotation Yrotation Zrotation
													End Site
													{
														OFFSET 0.000000 0.000000 0.000000
													}
												}
											}
										}
										JOINT RightHandRing1
										{
											OFFSET -24.660927 0.144547 -6.225808
											CHANNELS 3 Xrotation Yrotation Zrotation
											JOINT RightHandRing2
											{
												OFFSET -9.393799 0.000000 0.000000
												CHANNELS 3 Xrotation Yrotation Zrotation
												JOINT RightHandRing3
												{
													OFFSET -9.928497 0.000000 0.000000
													CHANNELS 3 Xrotation Yrotation Zrotation
													End Site
													{
														OFFSET 0.000000 0.000000 0.000000
													}
												}
											}
										}
										JOINT RightHandPinky1
										{
											OFFSET -23.655350 0.125290 -12.815412
											CHANNELS 3 Xrotation Yrotation Zrotation
											JOINT RightHandPinky2
											{
												OFFSET -8.425102 0.000000 0.000000
												CHANNELS 3 Xrotation Yrotation Zrotation
												JOINT RightHandPinky3
												{
													OFFSET -8.147003 0.000000 0.000000
													CHANNELS 3 Xrotation Yrotation Zrotation
													End Site
													{
														OFFSET 0.000000 0.000000 0.000000
													}
												}
											}
										}
									}
								}
							}
						}
					}
				}
			}
		}
	}
	JOINT LeftUpLeg
	{
		OFFSET 11.394100 -6.187798 -0.413800
		CHANNELS 3 Xrotation Yrotation Zrotation
		JOINT LeftLeg
		{
			OFFSET 0.430247 -32.302673 3.732800
			CHANNELS 3 Xrotation Yrotation Zrotation
			JOINT LeftFoot
			{
				OFFSET -0.430247 -48.264931 -6.423300
				CHANNELS 3 Xrotation Yrotation Zrotation
				JOINT LeftToeBase
				{
					OFFSET 4.230900 -16.068199 23.438400
					CHANNELS 3 Xrotation Yrotation Zrotation
					JOINT LeftToe_End
					{
						OFFSET 4.510700 0.695400 19.974600
						CHANNELS 3 Xrotation Yrotation Zrotation
						End Site
						{
							OFFSET 0.000000 0.000000 0.000000
						}
					}
				}
			}
		}
	}
	JOINT RightUpLeg
	{
		OFFSET -11.333700 -6.187798 -0.413800
		CHANNELS 3 Xrotation Yrotation Zrotation
		JOINT RightLeg
		{
			OFFSET -0.430392 -32.302628 3.733000
			CHANNELS 3 Xrotation Yrotation Zrotation
			JOINT RightFoot
			{
				OFFSET 0.430392 -48.264973 -6.423500
				CHANNELS 3 Xrotation Yrotation Zrotation
				JOINT RightToeBase
				{
					OFFSET -4.230900 -16.068199 23.438400
					CHANNELS 3 Xrotation Yrotation Zrotation
					JOINT RightToe_End
					{
						OFFSET -4.510700 0.695400 19.974600
						CHANNELS 3 Xrotation Yrotation Zrotation
						End Site
						{
							OFFSET 0.000000 0.000000 0.000000
						}
					}
				}
			}
		}
	}
}
MOTION
Frames: 5
Frame Time: 0.016667
-0.065678 85.303543 -0.139524 -5.398872 -46.271366 -0.212055 9.456604 7.225527 -1.652085 2.187717 0.989895 -0.915630 0.000000 0.000000 0.000000 2.202827 0.982777 -0.894153 0.084655 13.220553 4.538681 8.920926 20.138140 -4.130235 0.000000 -0.000000 -0.000001 1.117179 3.546346 -8.633310 0.000000 0.000000 0.000000 -53.487027 4.935511 -51.503004 0.000052 -106.358073 0.000060 1.988606 -7.706145 -15.869253 -6.141201 -11.690806 -6.761685 9.914108 42.595515 3.409871 -0.422808 8.108102 27.509116 0.000002 0.000000 -0.000000 0.255319 3.378216 -45.814348 5.654090 5.847761 -88.067455 0.000002 0.000000 0.000000 -0.461467 3.841585 -39.722676 6.450753 5.820349 -95.892871 0.000001 -0.000000 -0.000001 0.469725 4.966828 -39.799441 8.181048 5.368616 -113.502991 -0.000000 0.000001 0.000000 -3.762422 9.063701 -45.253821 5.342533 5.829001 -85.005311 0.000003 -0.000000 0.000002 3.036131 13.027198 -5.371407 0.000000 0.000000 0.000000 -48.713705 27.172830 83.457057 -0.000052 105.988287 0.000055 -8.345362 17.548096 8.775658 -7.341082 13.749667 7.412329 9.855757 -44.489107 -3.903271 -0.115787 -14.513086 -28.973881 -0.000001 -0.000001 -0.000000 -0.124375 -2.384789 45.108874 4.500585 -4.654541 88.071157 -0.000001 -0.000000 0.000001 -0.761622 -2.932905 39.031068 5.133886 -4.632751 95.881663 0.000001 -0.000000 0.000001 0.154762 -4.068815 39.122668 6.509738 -4.273590 113.462898 -0.000001 0.000002 0.000000 -4.198872 -8.025515 44.637776 4.252909 -4.639634 85.014805 0.000001 0.000003 0.000002 -38.933502 5.287475 17.886083 58.809739 -5.660337 4.384331 -17.445845 -8.502710 -15.880091 -1.594027 0.000012 0.000002 -0.000000 -0.000000 -0.000000 -29.905464 -7.026615 -29.148625 58.364028 -9.468500 -7.709925 -19.429272 -5.380421 23.113866 -0.012999 0.000010 -0.000001 0.000000 -0.000000 0.000000 
0.069830 85.436409 -0.264434 -5.728136 -46.449019 -0.215192 9.270154 7.326240 -1.650743 2.640259 1.191271 -1.060358 0.000000 0.000000 0.000000 2.654105 1.184984 -1.039338 0.357708 12.542807 4.092548 8.127882 19.984271 -4.225180 0.000001 -0.000000 -0.000001 0.981717 3.207199 -8.086433 0.000000 0.000000 0.000000 -52.083512 4.488239 -52.459678 -0.000124 -105.430773 -0.000109 1.015811 -5.582472 -15.643310 -6.141202 -11.690805 -6.761686 9.914111 42.595515 3.409870 -0.422803 8.108105 27.509120 -0.000002 0.000000 0.000002 0.255319 3.378217 -45.814348 5.654090 5.847762 -88.067455 -0.000000 -0.000002 0.000000 -0.461467 3.841587 -39.722676 6.450753 5.820350 -95.892871 -0.000001 0.000002 -0.000000 0.469724 4.966829 -39.799437 8.181043 5.368616 -113.502991 -0.000002 -0.000001 -0.000001 -3.762419 9.063699 -45.253825 5.342535 5.829003 -85.005317 0.000001 -0.000002 0.000001 3.469380 13.680570 -5.027488 0.000000 0.000000 0.000000 -48.559230 27.223985 81.465729 -0.000001 106.431027 0.000004 -8.957039 17.278902 9.150951 -7.341082 13.749668 7.412325 9.855751 -44.489103 -3.903266 -0.115788 -14.513080 -28.973884 -0.000001 0.000002 -0.000003 -0.124375 -2.384785 45.108874 4.500582 -4.654542 88.071157 0.000000 0.000000 0.000000 -0.761622 -2.932901 39.031068 5.133887 -4.632752 95.881670 0.000001 -0.000000 0.000000 0.154760 -4.068815 39.122668 6.509734 -4.273593 113.462904 -0.000002 0.000000 0.000000 -4.198874 -8.025518 44.637769 4.252909 -4.639633 85.014805 0.000002 -0.000001 0.000003 -38.454914 5.500702 17.569999 58.364130 -5.401512 4.414767 -17.221998 -8.497225 -15.942865 -1.594027 0.000012 0.000002 -0.000000 -0.000000 -0.000000 -29.846690 -6.826922 -29.320090 58.248290 -9.372881 -7.696171 -19.249003 -5.300057 22.987738 -0.012999 0.000009 -0.000002 0.000000 0.000000 0.000000 
0.221496 85.571930 -0.375666 -5.978135 -46.664126 -0.086052 9.084475 7.579327 -1.798591 3.124196 1.480132 -1.284678 0.000000 0.000000 0.000000 3.136774 1.474867 -1.263946 0.728168 11.771766 3.506737 6.906010 19.480695 -3.816386 -0.000000 0.000000 0.000000 0.863355 2.875884 -7.567500 0.000000 0.000000 0.000000 -50.820419 3.482950 -53.809764 -0.000141 -104.407781 -0.000130 -0.646196 -3.189675 -15.370726 -6.141202 -11.690805 -6.761685 9.914112 42.595519 3.409874 -0.422805 8.108105 27.509116 -0.000002 -0.000003 0.000002 0.255318 3.378216 -45.814348 5.654092 5.847763 -88.067455 0.000000 0.000001 0.000001 -0.461466 3.841585 -39.722676 6.450758 5.820348 -95.892871 0.000001 -0.000000 -0.000000 0.469725 4.966826 -39.799444 8.181049 5.368616 -113.502991 0.000000 0.000002 0.000000 -3.762419 9.063699 -45.253825 5.342534 5.829001 -85.005311 0.000001 -0.000001 -0.000002 3.937035 14.543556 -4.656807 0.000000 0.000000 0.000000 -48.082097 26.964810 78.972478 0.000110 107.157697 -0.000106 -9.547688 17.015699 9.282239 -7.341084 13.749669 7.412318 9.855761 -44.489103 -3.903270 -0.115791 -14.513090 -28.973884 0.000001 -0.000001 -0.000000 -0.124377 -2.384788 45.108871 4.500583 -4.654540 88.071157 -0.000001 -0.000001 -0.000001 -0.761622 -2.932903 39.031068 5.133887 -4.632753 95.881670 0.000002 -0.000004 0.000003 0.154761 -4.068813 39.122671 6.509735 -4.273593 113.462898 0.000000 -0.000002 -0.000000 -4.198875 -8.025517 44.637776 4.252905 -4.639634 85.014805 0.000000 -0.000002 0.000003 -37.957082 5.662473 17.142561 57.876168 -5.004626 4.381420 -16.997018 -8.495494 -16.026383 -1.594027 0.000010 0.000001 -0.000000 0.000002 0.000000 -29.845475 -6.503333 -29.536692 58.139697 -9.305091 -7.677146 -19.042668 -5.226383 22.893484 -0.012999 0.000009 -0.000002 -0.000000 0.000000 -0.000000 
0.382020 85.720421 -0.463298 -6.277474 -46.737096 0.318096 8.795475 8.271367 -2.135523 3.590460 1.988623 -1.614736 0.000000 0.000000 0.000000 3.602246 1.984439 -1.593470 1.274046 10.754599 2.693522 6.275626 17.988041 -3.563895 -0.000000 -0.000000 0.000001 0.788833 2.666423 -7.211885 0.000000 0.000000 0.000000 -49.654639 0.704918 -56.253301 0.000042 -102.244694 0.000047 -2.418235 -0.428786 -15.025527 -6.141203 -11.690806 -6.761684 9.914109 42.595519 3.409874 -0.422805 8.108106 27.509116 -0.000002 -0.000001 0.000001 0.255318 3.378215 -45.814344 5.654085 5.847761 -88.067448 -0.000001 0.000001 0.000000 -0.461470 3.841585 -39.722673 6.450750 5.820346 -95.892871 -0.000000 -0.000000 0.000001 0.469722 4.966827 -39.799430 8.181051 5.368615 -113.502998 -0.000001 0.000001 -0.000000 -3.762421 9.063698 -45.253825 5.342532 5.828999 -85.005317 -0.000000 -0.000000 -0.000002 4.427753 15.576516 -4.226197 0.000000 0.000000 0.000000 -46.369352 25.864354 75.178314 0.000000 108.408387 -0.000011 -10.196579 16.852064 9.256418 -7.341083 13.749665 7.412325 9.855752 -44.489107 -3.903269 -0.115783 -14.513085 -28.973884 0.000001 0.000001 -0.000003 -0.124375 -2.384786 45.108871 4.500583 -4.654540 88.071150 0.000002 -0.000001 -0.000002 -0.761623 -2.932906 39.031068 5.133884 -4.632750 95.881663 0.000001 -0.000004 0.000002 0.154762 -4.068816 39.122661 6.509735 -4.273593 113.462898 0.000001 -0.000001 -0.000001 -4.198874 -8.025519 44.637769 4.252912 -4.639634 85.014805 -0.000000 -0.000001 0.000002 -37.289240 5.889487 16.343488 57.230415 -4.551307 4.269960 -16.705319 -8.532775 -16.059141 -1.594027 0.000010 0.000002 -0.000000 -0.000003 -0.000000 -29.694097 -5.927382 -29.987642 58.064927 -9.235758 -7.628152 -18.825524 -5.413216 22.874317 -0.012999 0.000009 -0.000002 -0.000000 -0.000001 -0.000000 
0.538584 85.894409 -0.524520 -6.829895 -46.457577 1.185028 8.196984 9.659814 -2.503018 3.949818 2.831927 -1.994073 0.000000 0.000000 0.000000 3.961720 2.828633 -1.970927 2.071402 9.285623 1.530601 7.438201 14.664107 -4.681024 0.000003 -0.000000 0.000000 0.791110 2.710392 -7.177292 0.000000 0.000000 0.000000 -48.569892 -4.910040 -60.701414 0.000579 -97.495780 0.000598 -3.290974 2.878780 -14.638859 -6.141204 -11.690807 -6.761685 9.914115 42.595512 3.409867 -0.422807 8.108102 27.509111 -0.000002 -0.000001 -0.000000 0.255316 3.378217 -45.814348 5.654087 5.847760 -88.067455 0.000001 0.000000 0.000000 -0.461467 3.841585 -39.722676 6.450752 5.820347 -95.892871 0.000000 -0.000003 -0.000001 0.469725 4.966826 -39.799437 8.181045 5.368617 -113.502991 0.000000 -0.000002 0.000001 -3.762423 9.063700 -45.253821 5.342531 5.829002 -85.005317 -0.000000 -0.000003 -0.000002 4.917515 16.582053 -3.718187 0.000000 0.000000 0.000000 -42.928384 23.446346 69.552185 0.000147 110.157639 -0.000161 -11.049480 16.602245 9.503754 -7.341086 13.749665 7.412324 9.855749 -44.489103 -3.903268 -0.115784 -14.513092 -28.973884 0.000002 0.000001 -0.000001 -0.124376 -2.384788 45.108868 4.500583 -4.654542 88.071157 0.000002 -0.000001 0.000001 -0.761622 -2.932904 39.031068 5.133890 -4.632753 95.881670 0.000000 -0.000001 -0.000001 0.154761 -4.068818 39.122668 6.509737 -4.273593 113.462891 -0.000000 -0.000001 -0.000000 -4.198874 -8.025518 44.637769 4.252908 -4.639634 85.014805 -0.000000 0.000001 0.000002 -36.209428 6.360921 14.832423 56.248985 -4.181401 4.057464 -16.250588 -8.641900 -15.941457 -1.594027 0.000012 0.000002 -0.000000 -0.000004 -0.000000 -29.079305 -4.895135 -30.893779 58.093675 -8.911191 -7.514592 -18.621879 -6.439755 22.896812 -0.012999 0.000010 -0.000002 0.000000 0.000001 -0.000001 
